solid ascii
  facet normal -1.000000e+000 0.000000e+000 0.000000e+000
    outer loop
      vertex   -9.600000e+001 1.360000e+002 3.000000e+000
      vertex   -9.600000e+001 9.200000e+001 3.000000e+000
      vertex   -9.600000e+001 1.360000e+002 6.200000e+000
    endloop
  endfacet
  facet normal -1.000000e+000 -0.000000e+000 0.000000e+000
    outer loop
      vertex   -9.600000e+001 1.360000e+002 6.200000e+000
      vertex   -9.600000e+001 9.200000e+001 3.000000e+000
      vertex   -9.600000e+001 9.200000e+001 6.200000e+000
    endloop
  endfacet
  facet normal -1.000000e+000 0.000000e+000 -0.000000e+000
    outer loop
      vertex   -9.600000e+001 9.200000e+001 6.200000e+000
      vertex   -9.600000e+001 9.200000e+001 3.000000e+000
      vertex   -9.600000e+001 4.800000e+001 3.000000e+000
    endloop
  endfacet
  facet normal -1.000000e+000 -0.000000e+000 0.000000e+000
    outer loop
      vertex   -9.600000e+001 9.200000e+001 6.200000e+000
      vertex   -9.600000e+001 4.800000e+001 3.000000e+000
      vertex   -9.600000e+001 4.800000e+001 6.200000e+000
    endloop
  endfacet
  facet normal -1.000000e+000 0.000000e+000 -0.000000e+000
    outer loop
      vertex   -9.600000e+001 4.800000e+001 6.200000e+000
      vertex   -9.600000e+001 4.800000e+001 3.000000e+000
      vertex   -9.600000e+001 4.000000e+000 3.000000e+000
    endloop
  endfacet
  facet normal -1.000000e+000 -0.000000e+000 0.000000e+000
    outer loop
      vertex   -9.600000e+001 4.800000e+001 6.200000e+000
      vertex   -9.600000e+001 4.000000e+000 3.000000e+000
      vertex   -9.600000e+001 4.000000e+000 6.200000e+000
    endloop
  endfacet
  facet normal -0.000000e+000 1.000000e+000 0.000000e+000
    outer loop
      vertex   -9.600000e+001 1.360000e+002 6.200000e+000
      vertex   -5.000000e+001 1.360000e+002 6.200000e+000
      vertex   -9.600000e+001 1.360000e+002 3.000000e+000
    endloop
  endfacet
  facet normal 0.000000e+000 1.000000e+000 0.000000e+000
    outer loop
      vertex   -9.600000e+001 1.360000e+002 3.000000e+000
      vertex   -5.000000e+001 1.360000e+002 6.200000e+000
      vertex   -5.000000e+001 1.360000e+002 3.000000e+000
    endloop
  endfacet
  facet normal 0.000000e+000 1.000000e+000 0.000000e+000
    outer loop
      vertex   -5.000000e+001 1.360000e+002 3.000000e+000
      vertex   -5.000000e+001 1.360000e+002 6.200000e+000
      vertex   -4.000000e+000 1.360000e+002 6.200000e+000
    endloop
  endfacet
  facet normal 0.000000e+000 1.000000e+000 0.000000e+000
    outer loop
      vertex   -5.000000e+001 1.360000e+002 3.000000e+000
      vertex   -4.000000e+000 1.360000e+002 6.200000e+000
      vertex   -4.000000e+000 1.360000e+002 3.000000e+000
    endloop
  endfacet
  facet normal 1.000000e+000 0.000000e+000 0.000000e+000
    outer loop
      vertex   -4.000000e+000 1.360000e+002 6.200000e+000
      vertex   -4.000000e+000 9.200000e+001 6.200000e+000
      vertex   -4.000000e+000 1.360000e+002 3.000000e+000
    endloop
  endfacet
  facet normal 1.000000e+000 0.000000e+000 0.000000e+000
    outer loop
      vertex   -4.000000e+000 1.360000e+002 3.000000e+000
      vertex   -4.000000e+000 9.200000e+001 6.200000e+000
      vertex   -4.000000e+000 9.200000e+001 3.000000e+000
    endloop
  endfacet
  facet normal 1.000000e+000 0.000000e+000 -0.000000e+000
    outer loop
      vertex   -4.000000e+000 9.200000e+001 3.000000e+000
      vertex   -4.000000e+000 9.200000e+001 6.200000e+000
      vertex   -4.000000e+000 4.800000e+001 6.200000e+000
    endloop
  endfacet
  facet normal 1.000000e+000 0.000000e+000 0.000000e+000
    outer loop
      vertex   -4.000000e+000 9.200000e+001 3.000000e+000
      vertex   -4.000000e+000 4.800000e+001 6.200000e+000
      vertex   -4.000000e+000 4.800000e+001 3.000000e+000
    endloop
  endfacet
  facet normal 1.000000e+000 0.000000e+000 -0.000000e+000
    outer loop
      vertex   -4.000000e+000 4.800000e+001 3.000000e+000
      vertex   -4.000000e+000 4.800000e+001 6.200000e+000
      vertex   -4.000000e+000 4.000000e+000 6.200000e+000
    endloop
  endfacet
  facet normal 1.000000e+000 0.000000e+000 0.000000e+000
    outer loop
      vertex   -4.000000e+000 4.800000e+001 3.000000e+000
      vertex   -4.000000e+000 4.000000e+000 6.200000e+000
      vertex   -4.000000e+000 4.000000e+000 3.000000e+000
    endloop
  endfacet
  facet normal 0.000000e+000 -1.000000e+000 0.000000e+000
    outer loop
      vertex   -9.600000e+001 4.000000e+000 3.000000e+000
      vertex   -5.000000e+001 4.000000e+000 3.000000e+000
      vertex   -9.600000e+001 4.000000e+000 6.200000e+000
    endloop
  endfacet
  facet normal 0.000000e+000 -1.000000e+000 0.000000e+000
    outer loop
      vertex   -9.600000e+001 4.000000e+000 6.200000e+000
      vertex   -5.000000e+001 4.000000e+000 3.000000e+000
      vertex   -5.000000e+001 4.000000e+000 6.200000e+000
    endloop
  endfacet
  facet normal 0.000000e+000 -1.000000e+000 0.000000e+000
    outer loop
      vertex   -5.000000e+001 4.000000e+000 6.200000e+000
      vertex   -5.000000e+001 4.000000e+000 3.000000e+000
      vertex   -4.000000e+000 4.000000e+000 3.000000e+000
    endloop
  endfacet
  facet normal 0.000000e+000 -1.000000e+000 0.000000e+000
    outer loop
      vertex   -5.000000e+001 4.000000e+000 6.200000e+000
      vertex   -4.000000e+000 4.000000e+000 3.000000e+000
      vertex   -4.000000e+000 4.000000e+000 6.200000e+000
    endloop
  endfacet
  facet normal 0.000000e+000 0.000000e+000 1.000000e+000
    outer loop
      vertex   -5.000000e+001 1.360000e+002 6.200000e+000
      vertex   -9.600000e+001 1.360000e+002 6.200000e+000
      vertex   -5.000000e+001 9.200000e+001 6.200000e+000
    endloop
  endfacet
  facet normal 0.000000e+000 0.000000e+000 1.000000e+000
    outer loop
      vertex   -5.000000e+001 9.200000e+001 6.200000e+000
      vertex   -9.600000e+001 1.360000e+002 6.200000e+000
      vertex   -9.600000e+001 9.200000e+001 6.200000e+000
    endloop
  endfacet
  facet normal 0.000000e+000 0.000000e+000 1.000000e+000
    outer loop
      vertex   -5.000000e+001 9.200000e+001 6.200000e+000
      vertex   -9.600000e+001 9.200000e+001 6.200000e+000
      vertex   -5.000000e+001 4.800000e+001 6.200000e+000
    endloop
  endfacet
  facet normal 0.000000e+000 0.000000e+000 1.000000e+000
    outer loop
      vertex   -5.000000e+001 4.800000e+001 6.200000e+000
      vertex   -9.600000e+001 9.200000e+001 6.200000e+000
      vertex   -9.600000e+001 4.800000e+001 6.200000e+000
    endloop
  endfacet
  facet normal 0.000000e+000 0.000000e+000 1.000000e+000
    outer loop
      vertex   -5.000000e+001 4.800000e+001 6.200000e+000
      vertex   -9.600000e+001 4.800000e+001 6.200000e+000
      vertex   -5.000000e+001 4.000000e+000 6.200000e+000
    endloop
  endfacet
  facet normal 0.000000e+000 0.000000e+000 1.000000e+000
    outer loop
      vertex   -5.000000e+001 4.000000e+000 6.200000e+000
      vertex   -9.600000e+001 4.800000e+001 6.200000e+000
      vertex   -9.600000e+001 4.000000e+000 6.200000e+000
    endloop
  endfacet
  facet normal 0.000000e+000 0.000000e+000 1.000000e+000
    outer loop
      vertex   -5.000000e+001 4.000000e+000 6.200000e+000
      vertex   -4.000000e+000 4.000000e+000 6.200000e+000
      vertex   -5.000000e+001 4.800000e+001 6.200000e+000
    endloop
  endfacet
  facet normal -0.000000e+000 0.000000e+000 1.000000e+000
    outer loop
      vertex   -5.000000e+001 4.800000e+001 6.200000e+000
      vertex   -4.000000e+000 4.000000e+000 6.200000e+000
      vertex   -4.000000e+000 4.800000e+001 6.200000e+000
    endloop
  endfacet
  facet normal 0.000000e+000 0.000000e+000 1.000000e+000
    outer loop
      vertex   -5.000000e+001 4.800000e+001 6.200000e+000
      vertex   -4.000000e+000 4.800000e+001 6.200000e+000
      vertex   -5.000000e+001 9.200000e+001 6.200000e+000
    endloop
  endfacet
  facet normal -0.000000e+000 0.000000e+000 1.000000e+000
    outer loop
      vertex   -5.000000e+001 9.200000e+001 6.200000e+000
      vertex   -4.000000e+000 4.800000e+001 6.200000e+000
      vertex   -4.000000e+000 9.200000e+001 6.200000e+000
    endloop
  endfacet
  facet normal 0.000000e+000 0.000000e+000 1.000000e+000
    outer loop
      vertex   -5.000000e+001 9.200000e+001 6.200000e+000
      vertex   -4.000000e+000 9.200000e+001 6.200000e+000
      vertex   -5.000000e+001 1.360000e+002 6.200000e+000
    endloop
  endfacet
  facet normal -0.000000e+000 0.000000e+000 1.000000e+000
    outer loop
      vertex   -5.000000e+001 1.360000e+002 6.200000e+000
      vertex   -4.000000e+000 9.200000e+001 6.200000e+000
      vertex   -4.000000e+000 1.360000e+002 6.200000e+000
    endloop
  endfacet
  facet normal 0.000000e+000 0.000000e+000 1.000000e+000
    outer loop
      vertex   -9.600000e+001 4.800000e+001 3.000000e+000
      vertex   -1.000000e+002 4.666667e+001 3.000000e+000
      vertex   -9.600000e+001 4.000000e+000 3.000000e+000
    endloop
  endfacet
  facet normal 0.000000e+000 0.000000e+000 1.000000e+000
    outer loop
      vertex   -9.600000e+001 4.000000e+000 3.000000e+000
      vertex   -1.000000e+002 4.666667e+001 3.000000e+000
      vertex   -1.000000e+002 0.000000e+000 3.000000e+000
    endloop
  endfacet
  facet normal 0.000000e+000 0.000000e+000 1.000000e+000
    outer loop
      vertex   -9.600000e+001 4.000000e+000 3.000000e+000
      vertex   -1.000000e+002 0.000000e+000 3.000000e+000
      vertex   -5.000000e+001 0.000000e+000 3.000000e+000
    endloop
  endfacet
  facet normal 0.000000e+000 -0.000000e+000 1.000000e+000
    outer loop
      vertex   -9.600000e+001 4.800000e+001 3.000000e+000
      vertex   -9.600000e+001 9.200000e+001 3.000000e+000
      vertex   -1.000000e+002 4.666667e+001 3.000000e+000
    endloop
  endfacet
  facet normal 0.000000e+000 0.000000e+000 1.000000e+000
    outer loop
      vertex   -1.000000e+002 4.666667e+001 3.000000e+000
      vertex   -9.600000e+001 9.200000e+001 3.000000e+000
      vertex   -1.000000e+002 9.333334e+001 3.000000e+000
    endloop
  endfacet
  facet normal -0.000000e+000 0.000000e+000 1.000000e+000
    outer loop
      vertex   -1.000000e+002 9.333334e+001 3.000000e+000
      vertex   -9.600000e+001 9.200000e+001 3.000000e+000
      vertex   -9.600000e+001 1.360000e+002 3.000000e+000
    endloop
  endfacet
  facet normal 0.000000e+000 0.000000e+000 1.000000e+000
    outer loop
      vertex   -1.000000e+002 9.333334e+001 3.000000e+000
      vertex   -9.600000e+001 1.360000e+002 3.000000e+000
      vertex   -1.000000e+002 1.400000e+002 3.000000e+000
    endloop
  endfacet
  facet normal -0.000000e+000 0.000000e+000 1.000000e+000
    outer loop
      vertex   -1.000000e+002 1.400000e+002 3.000000e+000
      vertex   -9.600000e+001 1.360000e+002 3.000000e+000
      vertex   -5.000000e+001 1.400000e+002 3.000000e+000
    endloop
  endfacet
  facet normal 0.000000e+000 0.000000e+000 1.000000e+000
    outer loop
      vertex   -5.000000e+001 1.400000e+002 3.000000e+000
      vertex   -9.600000e+001 1.360000e+002 3.000000e+000
      vertex   -5.000000e+001 1.360000e+002 3.000000e+000
    endloop
  endfacet
  facet normal 0.000000e+000 0.000000e+000 1.000000e+000
    outer loop
      vertex   -5.000000e+001 1.400000e+002 3.000000e+000
      vertex   -5.000000e+001 1.360000e+002 3.000000e+000
      vertex   -4.000000e+000 1.360000e+002 3.000000e+000
    endloop
  endfacet
  facet normal 0.000000e+000 0.000000e+000 1.000000e+000
    outer loop
      vertex   -4.000000e+000 9.200000e+001 3.000000e+000
      vertex   0.000000e+000 9.333334e+001 3.000000e+000
      vertex   -4.000000e+000 1.360000e+002 3.000000e+000
    endloop
  endfacet
  facet normal -0.000000e+000 0.000000e+000 1.000000e+000
    outer loop
      vertex   -4.000000e+000 1.360000e+002 3.000000e+000
      vertex   0.000000e+000 9.333334e+001 3.000000e+000
      vertex   0.000000e+000 1.400000e+002 3.000000e+000
    endloop
  endfacet
  facet normal 0.000000e+000 -0.000000e+000 1.000000e+000
    outer loop
      vertex   -4.000000e+000 1.360000e+002 3.000000e+000
      vertex   0.000000e+000 1.400000e+002 3.000000e+000
      vertex   -5.000000e+001 1.400000e+002 3.000000e+000
    endloop
  endfacet
  facet normal 0.000000e+000 0.000000e+000 1.000000e+000
    outer loop
      vertex   0.000000e+000 9.333334e+001 3.000000e+000
      vertex   -4.000000e+000 9.200000e+001 3.000000e+000
      vertex   0.000000e+000 4.666667e+001 3.000000e+000
    endloop
  endfacet
  facet normal 0.000000e+000 0.000000e+000 1.000000e+000
    outer loop
      vertex   0.000000e+000 4.666667e+001 3.000000e+000
      vertex   -4.000000e+000 9.200000e+001 3.000000e+000
      vertex   -4.000000e+000 4.800000e+001 3.000000e+000
    endloop
  endfacet
  facet normal 0.000000e+000 0.000000e+000 1.000000e+000
    outer loop
      vertex   0.000000e+000 4.666667e+001 3.000000e+000
      vertex   -4.000000e+000 4.800000e+001 3.000000e+000
      vertex   -4.000000e+000 4.000000e+000 3.000000e+000
    endloop
  endfacet
  facet normal -0.000000e+000 0.000000e+000 1.000000e+000
    outer loop
      vertex   -5.000000e+001 4.000000e+000 3.000000e+000
      vertex   -5.000000e+001 0.000000e+000 3.000000e+000
      vertex   -4.000000e+000 4.000000e+000 3.000000e+000
    endloop
  endfacet
  facet normal 0.000000e+000 0.000000e+000 1.000000e+000
    outer loop
      vertex   -4.000000e+000 4.000000e+000 3.000000e+000
      vertex   -5.000000e+001 0.000000e+000 3.000000e+000
      vertex   0.000000e+000 0.000000e+000 3.000000e+000
    endloop
  endfacet
  facet normal -0.000000e+000 0.000000e+000 1.000000e+000
    outer loop
      vertex   -4.000000e+000 4.000000e+000 3.000000e+000
      vertex   0.000000e+000 0.000000e+000 3.000000e+000
      vertex   0.000000e+000 4.666667e+001 3.000000e+000
    endloop
  endfacet
  facet normal 0.000000e+000 0.000000e+000 1.000000e+000
    outer loop
      vertex   -5.000000e+001 4.000000e+000 3.000000e+000
      vertex   -9.600000e+001 4.000000e+000 3.000000e+000
      vertex   -5.000000e+001 0.000000e+000 3.000000e+000
    endloop
  endfacet
  facet normal 0.000000e+000 0.000000e+000 -1.000000e+000
    outer loop
      vertex   -5.000000e+001 1.400000e+002 -3.081864e-015
      vertex   0.000000e+000 1.400000e+002 -3.081864e-015
      vertex   -5.000000e+001 9.333334e+001 -3.081864e-015
    endloop
  endfacet
  facet normal 0.000000e+000 0.000000e+000 -1.000000e+000
    outer loop
      vertex   -5.000000e+001 9.333334e+001 -3.081864e-015
      vertex   0.000000e+000 1.400000e+002 -3.081864e-015
      vertex   0.000000e+000 9.333334e+001 -3.081864e-015
    endloop
  endfacet
  facet normal 0.000000e+000 0.000000e+000 -1.000000e+000
    outer loop
      vertex   -5.000000e+001 9.333334e+001 -3.081864e-015
      vertex   0.000000e+000 9.333334e+001 -3.081864e-015
      vertex   -5.000000e+001 4.666667e+001 -3.081864e-015
    endloop
  endfacet
  facet normal 0.000000e+000 0.000000e+000 -1.000000e+000
    outer loop
      vertex   -5.000000e+001 4.666667e+001 -3.081864e-015
      vertex   0.000000e+000 9.333334e+001 -3.081864e-015
      vertex   0.000000e+000 4.666667e+001 -3.081864e-015
    endloop
  endfacet
  facet normal 0.000000e+000 0.000000e+000 -1.000000e+000
    outer loop
      vertex   -5.000000e+001 4.666667e+001 -3.081864e-015
      vertex   0.000000e+000 4.666667e+001 -3.081864e-015
      vertex   -5.000000e+001 0.000000e+000 -3.081864e-015
    endloop
  endfacet
  facet normal 0.000000e+000 0.000000e+000 -1.000000e+000
    outer loop
      vertex   -5.000000e+001 0.000000e+000 -3.081864e-015
      vertex   0.000000e+000 4.666667e+001 -3.081864e-015
      vertex   0.000000e+000 0.000000e+000 -3.081864e-015
    endloop
  endfacet
  facet normal 0.000000e+000 0.000000e+000 -1.000000e+000
    outer loop
      vertex   -5.000000e+001 0.000000e+000 -3.081864e-015
      vertex   -1.000000e+002 0.000000e+000 -3.081864e-015
      vertex   -5.000000e+001 4.666667e+001 -3.081864e-015
    endloop
  endfacet
  facet normal -0.000000e+000 0.000000e+000 -1.000000e+000
    outer loop
      vertex   -5.000000e+001 4.666667e+001 -3.081864e-015
      vertex   -1.000000e+002 0.000000e+000 -3.081864e-015
      vertex   -1.000000e+002 4.666667e+001 -3.081864e-015
    endloop
  endfacet
  facet normal 0.000000e+000 0.000000e+000 -1.000000e+000
    outer loop
      vertex   -5.000000e+001 4.666667e+001 -3.081864e-015
      vertex   -1.000000e+002 4.666667e+001 -3.081864e-015
      vertex   -5.000000e+001 9.333334e+001 -3.081864e-015
    endloop
  endfacet
  facet normal -0.000000e+000 0.000000e+000 -1.000000e+000
    outer loop
      vertex   -5.000000e+001 9.333334e+001 -3.081864e-015
      vertex   -1.000000e+002 4.666667e+001 -3.081864e-015
      vertex   -1.000000e+002 9.333334e+001 -3.081864e-015
    endloop
  endfacet
  facet normal 0.000000e+000 0.000000e+000 -1.000000e+000
    outer loop
      vertex   -5.000000e+001 9.333334e+001 -3.081864e-015
      vertex   -1.000000e+002 9.333334e+001 -3.081864e-015
      vertex   -5.000000e+001 1.400000e+002 -3.081864e-015
    endloop
  endfacet
  facet normal -0.000000e+000 0.000000e+000 -1.000000e+000
    outer loop
      vertex   -5.000000e+001 1.400000e+002 -3.081864e-015
      vertex   -1.000000e+002 9.333334e+001 -3.081864e-015
      vertex   -1.000000e+002 1.400000e+002 -3.081864e-015
    endloop
  endfacet
  facet normal 0.000000e+000 -1.000000e+000 0.000000e+000
    outer loop
      vertex   -1.000000e+002 0.000000e+000 3.000000e+000
      vertex   -1.000000e+002 0.000000e+000 -3.081864e-015
      vertex   -5.000000e+001 0.000000e+000 3.000000e+000
    endloop
  endfacet
  facet normal 0.000000e+000 -1.000000e+000 -0.000000e+000
    outer loop
      vertex   -5.000000e+001 0.000000e+000 3.000000e+000
      vertex   -1.000000e+002 0.000000e+000 -3.081864e-015
      vertex   -5.000000e+001 0.000000e+000 -3.081864e-015
    endloop
  endfacet
  facet normal 0.000000e+000 -1.000000e+000 0.000000e+000
    outer loop
      vertex   -5.000000e+001 0.000000e+000 3.000000e+000
      vertex   -5.000000e+001 0.000000e+000 -3.081864e-015
      vertex   0.000000e+000 0.000000e+000 3.000000e+000
    endloop
  endfacet
  facet normal 0.000000e+000 -1.000000e+000 -0.000000e+000
    outer loop
      vertex   0.000000e+000 0.000000e+000 3.000000e+000
      vertex   -5.000000e+001 0.000000e+000 -3.081864e-015
      vertex   0.000000e+000 0.000000e+000 -3.081864e-015
    endloop
  endfacet
  facet normal -1.000000e+000 -0.000000e+000 -0.000000e+000
    outer loop
      vertex   -1.000000e+002 1.400000e+002 3.000000e+000
      vertex   -1.000000e+002 1.400000e+002 -3.081864e-015
      vertex   -1.000000e+002 9.333334e+001 3.000000e+000
    endloop
  endfacet
  facet normal -1.000000e+000 0.000000e+000 0.000000e+000
    outer loop
      vertex   -1.000000e+002 9.333334e+001 3.000000e+000
      vertex   -1.000000e+002 1.400000e+002 -3.081864e-015
      vertex   -1.000000e+002 9.333334e+001 -3.081864e-015
    endloop
  endfacet
  facet normal -1.000000e+000 -0.000000e+000 -0.000000e+000
    outer loop
      vertex   -1.000000e+002 9.333334e+001 3.000000e+000
      vertex   -1.000000e+002 9.333334e+001 -3.081864e-015
      vertex   -1.000000e+002 4.666667e+001 3.000000e+000
    endloop
  endfacet
  facet normal -1.000000e+000 0.000000e+000 0.000000e+000
    outer loop
      vertex   -1.000000e+002 4.666667e+001 3.000000e+000
      vertex   -1.000000e+002 9.333334e+001 -3.081864e-015
      vertex   -1.000000e+002 4.666667e+001 -3.081864e-015
    endloop
  endfacet
  facet normal -1.000000e+000 -0.000000e+000 -0.000000e+000
    outer loop
      vertex   -1.000000e+002 4.666667e+001 3.000000e+000
      vertex   -1.000000e+002 4.666667e+001 -3.081864e-015
      vertex   -1.000000e+002 0.000000e+000 3.000000e+000
    endloop
  endfacet
  facet normal -1.000000e+000 0.000000e+000 0.000000e+000
    outer loop
      vertex   -1.000000e+002 0.000000e+000 3.000000e+000
      vertex   -1.000000e+002 4.666667e+001 -3.081864e-015
      vertex   -1.000000e+002 0.000000e+000 -3.081864e-015
    endloop
  endfacet
  facet normal 0.000000e+000 1.000000e+000 0.000000e+000
    outer loop
      vertex   0.000000e+000 1.400000e+002 3.000000e+000
      vertex   0.000000e+000 1.400000e+002 -3.081864e-015
      vertex   -5.000000e+001 1.400000e+002 3.000000e+000
    endloop
  endfacet
  facet normal 0.000000e+000 1.000000e+000 0.000000e+000
    outer loop
      vertex   -5.000000e+001 1.400000e+002 3.000000e+000
      vertex   0.000000e+000 1.400000e+002 -3.081864e-015
      vertex   -5.000000e+001 1.400000e+002 -3.081864e-015
    endloop
  endfacet
  facet normal 0.000000e+000 1.000000e+000 0.000000e+000
    outer loop
      vertex   -5.000000e+001 1.400000e+002 3.000000e+000
      vertex   -5.000000e+001 1.400000e+002 -3.081864e-015
      vertex   -1.000000e+002 1.400000e+002 3.000000e+000
    endloop
  endfacet
  facet normal 0.000000e+000 1.000000e+000 0.000000e+000
    outer loop
      vertex   -1.000000e+002 1.400000e+002 3.000000e+000
      vertex   -5.000000e+001 1.400000e+002 -3.081864e-015
      vertex   -1.000000e+002 1.400000e+002 -3.081864e-015
    endloop
  endfacet
  facet normal 1.000000e+000 -0.000000e+000 0.000000e+000
    outer loop
      vertex   0.000000e+000 0.000000e+000 3.000000e+000
      vertex   0.000000e+000 0.000000e+000 -3.081864e-015
      vertex   0.000000e+000 4.666667e+001 3.000000e+000
    endloop
  endfacet
  facet normal 1.000000e+000 0.000000e+000 0.000000e+000
    outer loop
      vertex   0.000000e+000 4.666667e+001 3.000000e+000
      vertex   0.000000e+000 0.000000e+000 -3.081864e-015
      vertex   0.000000e+000 4.666667e+001 -3.081864e-015
    endloop
  endfacet
  facet normal 1.000000e+000 -0.000000e+000 0.000000e+000
    outer loop
      vertex   0.000000e+000 4.666667e+001 3.000000e+000
      vertex   0.000000e+000 4.666667e+001 -3.081864e-015
      vertex   0.000000e+000 9.333334e+001 3.000000e+000
    endloop
  endfacet
  facet normal 1.000000e+000 0.000000e+000 0.000000e+000
    outer loop
      vertex   0.000000e+000 9.333334e+001 3.000000e+000
      vertex   0.000000e+000 4.666667e+001 -3.081864e-015
      vertex   0.000000e+000 9.333334e+001 -3.081864e-015
    endloop
  endfacet
  facet normal 1.000000e+000 -0.000000e+000 0.000000e+000
    outer loop
      vertex   0.000000e+000 9.333334e+001 3.000000e+000
      vertex   0.000000e+000 9.333334e+001 -3.081864e-015
      vertex   0.000000e+000 1.400000e+002 3.000000e+000
    endloop
  endfacet
  facet normal 1.000000e+000 0.000000e+000 0.000000e+000
    outer loop
      vertex   0.000000e+000 1.400000e+002 3.000000e+000
      vertex   0.000000e+000 9.333334e+001 -3.081864e-015
      vertex   0.000000e+000 1.400000e+002 -3.081864e-015
    endloop
  endfacet
endsolid
